<svg width="280" height="64" viewBox="0 0 280 64" fill="none" xmlns="http://www.w3.org/2000/svg" role="img" aria-labelledby="title desc">
  <title id="title">EC EMY COMÉRCIO</title>
  <desc id="desc">Logótipo da EC EMY COMÉRCIO para moda feminina com atendimento no WhatsApp.</desc>
  <rect x="1" y="1" width="62" height="62" rx="18" fill="#111111"/>
  <rect x="1" y="1" width="62" height="62" rx="18" stroke="#D9B55B" stroke-opacity="0.45"/>
  <path d="M22 21.5H31.5C34.5376 21.5 37 23.9624 37 27V27C37 29.2091 35.2091 31 33 31H22V21.5Z" stroke="#FBF8F2" stroke-width="2.25" stroke-linecap="round" stroke-linejoin="round"/>
  <path d="M22 31H33.5C36.5376 31 39 33.4624 39 36.5V36.5C39 39.5376 36.5376 42 33.5 42H22V31Z" stroke="#FBF8F2" stroke-width="2.25" stroke-linecap="round" stroke-linejoin="round"/>
  <path d="M26 48C27.1046 48 28 47.1046 28 46C28 44.8954 27.1046 44 26 44C24.8954 44 24 44.8954 24 46C24 47.1046 24.8954 48 26 48Z" fill="#D9B55B"/>
  <path d="M73 18H95" stroke="#D9B55B" stroke-width="1.5" stroke-linecap="round"/>
  <text x="73" y="30" fill="#111111" font-family="Georgia, 'Times New Roman', serif" font-size="20" letter-spacing="0.14em">EC EMY</text>
  <text x="73" y="46" fill="#7D6030" font-family="Arial, sans-serif" font-size="11" letter-spacing="0.42em">BOUTIQUE FEMININA</text>
  <text x="73" y="59" fill="#111111" font-family="Arial, sans-serif" font-size="14" letter-spacing="0.18em">COMÉRCIO</text>
</svg>
